<?xml version="1.0" encoding="utf-8"?>
<!-- Generator: Adobe Illustrator 20.1.0, SVG Export Plug-In . SVG Version: 6.00 Build 0)  -->
<!DOCTYPE svg PUBLIC "-//W3C//DTD SVG 1.1//EN" "http://www.w3.org/Graphics/SVG/1.1/DTD/svg11.dtd">
<svg version="1.1" xmlns="http://www.w3.org/2000/svg" xmlns:xlink="http://www.w3.org/1999/xlink" x="0px" y="0px"
	 viewBox="0 0 92 155.3" style="enable-background:new 0 0 92 155.3;" xml:space="preserve">
<style type="text/css">
	.st0{fill:#FFFFFF;}
</style>
<g id="レイヤー_1">
</g>
<g id="OBJECTS">
	<g>
		<g>
			<path class="st0" d="M5.9,46.2c0,10.2,5,19.3,10,26.7l28.4,51.6c0.7,1.3,2.7,1.3,3.4,0l28.5-51.9l0,0c5.6-7.6,10.5-17.9,9.8-29
				c-1.3-20-17.5-36.2-37.4-37.4C25.3,4.7,5.9,23.2,5.9,46.2z M23.1,46.2c0-12.7,10.3-22.9,22.9-22.9c12.7,0,22.9,10.3,22.9,22.9
				c0,12.7-10.3,22.9-22.9,22.9C33.3,69.1,23.1,58.9,23.1,46.2z"/>
			<circle class="st0" cx="46.6" cy="45.8" r="11.3"/>
		</g>
		<rect x="6.5" y="146.4" class="st0" width="79" height="2.9"/>
	</g>
</g>
</svg>
